<mxfile host="Electron" agent="Mozilla/5.0 (Windows NT 10.0; Win64; x64) AppleWebKit/537.36 (KHTML, like Gecko) draw.io/27.0.9 Chrome/134.0.6998.205 Electron/35.4.0 Safari/537.36" version="27.0.9">
  <diagram name="Page-1" id="H9fcaZsLGt1zxZ-3hIsj">
    <mxGraphModel dx="1938" dy="654" grid="1" gridSize="10" guides="1" tooltips="1" connect="1" arrows="1" fold="1" page="1" pageScale="1" pageWidth="1100" pageHeight="850" math="0" shadow="0">
      <root>
        <mxCell id="0" />
        <mxCell id="1" parent="0" />
        <mxCell id="CyFjMhQxjdO4spj4CjHA-1" value="Window" style="rounded=0;whiteSpace=wrap;html=1;" parent="1" vertex="1">
          <mxGeometry x="40" y="40" width="120" height="60" as="geometry" />
        </mxCell>
        <mxCell id="CyFjMhQxjdO4spj4CjHA-2" value="&lt;h1 style=&quot;margin-top: 0px;&quot;&gt;Window&lt;/h1&gt;&lt;p&gt;The window povides the OpenGL Context&lt;/p&gt;" style="text;html=1;whiteSpace=wrap;overflow=hidden;rounded=0;" parent="1" vertex="1">
          <mxGeometry x="210" y="40" width="270" height="90" as="geometry" />
        </mxCell>
        <mxCell id="CyFjMhQxjdO4spj4CjHA-3" value="ShaderProgram" style="rounded=0;whiteSpace=wrap;html=1;" parent="1" vertex="1">
          <mxGeometry x="40" y="160" width="120" height="60" as="geometry" />
        </mxCell>
        <mxCell id="CyFjMhQxjdO4spj4CjHA-4" value="&lt;h1 style=&quot;margin-top: 0px;&quot;&gt;Shader Program&lt;/h1&gt;&lt;p&gt;The ShaderProgram compiles shaders and provides an API for setting uniforms and other input to the compiled shaders.&lt;/p&gt;&lt;p&gt;Requires OpenGL Context from a Window&lt;/p&gt;" style="text;html=1;whiteSpace=wrap;overflow=hidden;rounded=0;" parent="1" vertex="1">
          <mxGeometry x="200" y="160" width="280" height="120" as="geometry" />
        </mxCell>
        <mxCell id="CyFjMhQxjdO4spj4CjHA-5" value="Texture" style="rounded=0;whiteSpace=wrap;html=1;" parent="1" vertex="1">
          <mxGeometry x="40" y="320" width="120" height="60" as="geometry" />
        </mxCell>
        <mxCell id="CyFjMhQxjdO4spj4CjHA-6" value="&lt;h1 style=&quot;margin-top: 0px;&quot;&gt;Texture&lt;/h1&gt;&lt;p&gt;The Texture compiles image data into an OpenGL texture object.&lt;/p&gt;&lt;p&gt;Requires OpenGL Context from a Window&lt;/p&gt;" style="text;html=1;whiteSpace=wrap;overflow=hidden;rounded=0;" parent="1" vertex="1">
          <mxGeometry x="200" y="320" width="280" height="120" as="geometry" />
        </mxCell>
        <mxCell id="CyFjMhQxjdO4spj4CjHA-11" value="" style="edgeStyle=orthogonalEdgeStyle;rounded=0;orthogonalLoop=1;jettySize=auto;html=1;" parent="1" source="oBcGlbRmu3WK4HHVnncj-38" target="CyFjMhQxjdO4spj4CjHA-9" edge="1">
          <mxGeometry relative="1" as="geometry">
            <mxPoint x="609.9999999999998" y="100" as="sourcePoint" />
          </mxGeometry>
        </mxCell>
        <mxCell id="CyFjMhQxjdO4spj4CjHA-12" value="" style="edgeStyle=orthogonalEdgeStyle;rounded=0;orthogonalLoop=1;jettySize=auto;html=1;" parent="1" source="CyFjMhQxjdO4spj4CjHA-9" target="CyFjMhQxjdO4spj4CjHA-10" edge="1">
          <mxGeometry relative="1" as="geometry" />
        </mxCell>
        <mxCell id="CyFjMhQxjdO4spj4CjHA-9" value="create Window" style="rounded=1;whiteSpace=wrap;html=1;absoluteArcSize=1;arcSize=14;strokeWidth=2;" parent="1" vertex="1">
          <mxGeometry x="560" y="160" width="100" height="100" as="geometry" />
        </mxCell>
        <mxCell id="CyFjMhQxjdO4spj4CjHA-14" value="" style="edgeStyle=orthogonalEdgeStyle;rounded=0;orthogonalLoop=1;jettySize=auto;html=1;" parent="1" source="CyFjMhQxjdO4spj4CjHA-10" target="CyFjMhQxjdO4spj4CjHA-13" edge="1">
          <mxGeometry relative="1" as="geometry" />
        </mxCell>
        <mxCell id="CyFjMhQxjdO4spj4CjHA-10" value="create ShaderProgram" style="rounded=1;whiteSpace=wrap;html=1;absoluteArcSize=1;arcSize=14;strokeWidth=2;" parent="1" vertex="1">
          <mxGeometry x="560" y="320" width="100" height="100" as="geometry" />
        </mxCell>
        <mxCell id="oBcGlbRmu3WK4HHVnncj-18" value="" style="edgeStyle=orthogonalEdgeStyle;rounded=0;orthogonalLoop=1;jettySize=auto;html=1;" parent="1" source="CyFjMhQxjdO4spj4CjHA-13" target="oBcGlbRmu3WK4HHVnncj-17" edge="1">
          <mxGeometry relative="1" as="geometry" />
        </mxCell>
        <mxCell id="CyFjMhQxjdO4spj4CjHA-13" value="load Textures&lt;div&gt;(could be done later)&lt;/div&gt;" style="rounded=1;whiteSpace=wrap;html=1;absoluteArcSize=1;arcSize=14;strokeWidth=2;" parent="1" vertex="1">
          <mxGeometry x="560" y="480" width="100" height="100" as="geometry" />
        </mxCell>
        <mxCell id="oBcGlbRmu3WK4HHVnncj-1" value="SpriteRenderer" style="rounded=0;whiteSpace=wrap;html=1;" parent="1" vertex="1">
          <mxGeometry x="40" y="480" width="120" height="60" as="geometry" />
        </mxCell>
        <mxCell id="oBcGlbRmu3WK4HHVnncj-2" value="&lt;h1 style=&quot;margin-top: 0px;&quot;&gt;Sprite Renderer&lt;/h1&gt;&lt;p&gt;The SpriteRenderer uses the ShaderProgram to draw a Texture based on a position and rotational data.&lt;/p&gt;" style="text;html=1;whiteSpace=wrap;overflow=hidden;rounded=0;" parent="1" vertex="1">
          <mxGeometry x="200" y="480" width="280" height="120" as="geometry" />
        </mxCell>
        <mxCell id="oBcGlbRmu3WK4HHVnncj-9" value="" style="edgeStyle=orthogonalEdgeStyle;rounded=0;orthogonalLoop=1;jettySize=auto;html=1;" parent="1" source="oBcGlbRmu3WK4HHVnncj-39" target="oBcGlbRmu3WK4HHVnncj-8" edge="1">
          <mxGeometry relative="1" as="geometry">
            <mxPoint x="769.9999999999998" y="100" as="sourcePoint" />
          </mxGeometry>
        </mxCell>
        <mxCell id="oBcGlbRmu3WK4HHVnncj-11" value="" style="edgeStyle=orthogonalEdgeStyle;rounded=0;orthogonalLoop=1;jettySize=auto;html=1;" parent="1" source="oBcGlbRmu3WK4HHVnncj-8" target="oBcGlbRmu3WK4HHVnncj-10" edge="1">
          <mxGeometry relative="1" as="geometry" />
        </mxCell>
        <mxCell id="oBcGlbRmu3WK4HHVnncj-8" value="draw a Sprite given: positional, rotational, and texture id data" style="rounded=1;whiteSpace=wrap;html=1;absoluteArcSize=1;arcSize=14;strokeWidth=2;" parent="1" vertex="1">
          <mxGeometry x="720" y="160" width="100" height="100" as="geometry" />
        </mxCell>
        <mxCell id="oBcGlbRmu3WK4HHVnncj-13" value="" style="edgeStyle=orthogonalEdgeStyle;rounded=0;orthogonalLoop=1;jettySize=auto;html=1;" parent="1" source="oBcGlbRmu3WK4HHVnncj-10" target="oBcGlbRmu3WK4HHVnncj-12" edge="1">
          <mxGeometry relative="1" as="geometry" />
        </mxCell>
        <mxCell id="oBcGlbRmu3WK4HHVnncj-10" value="apply view, projection, and clip transformations to local transform" style="rounded=1;whiteSpace=wrap;html=1;absoluteArcSize=1;arcSize=14;strokeWidth=2;" parent="1" vertex="1">
          <mxGeometry x="720" y="320" width="100" height="100" as="geometry" />
        </mxCell>
        <mxCell id="oBcGlbRmu3WK4HHVnncj-25" value="" style="edgeStyle=orthogonalEdgeStyle;rounded=0;orthogonalLoop=1;jettySize=auto;html=1;" parent="1" source="oBcGlbRmu3WK4HHVnncj-12" target="oBcGlbRmu3WK4HHVnncj-24" edge="1">
          <mxGeometry relative="1" as="geometry" />
        </mxCell>
        <mxCell id="oBcGlbRmu3WK4HHVnncj-12" value="either draw on demand or add to objects to draw...." style="rounded=1;whiteSpace=wrap;html=1;absoluteArcSize=1;arcSize=14;strokeWidth=2;" parent="1" vertex="1">
          <mxGeometry x="720" y="480" width="100" height="100" as="geometry" />
        </mxCell>
        <mxCell id="oBcGlbRmu3WK4HHVnncj-17" value="" style="strokeWidth=2;html=1;shape=mxgraph.flowchart.terminator;whiteSpace=wrap;" parent="1" vertex="1">
          <mxGeometry x="560" y="640" width="100" height="60" as="geometry" />
        </mxCell>
        <mxCell id="oBcGlbRmu3WK4HHVnncj-19" value="GameEngine" style="rounded=0;whiteSpace=wrap;html=1;" parent="1" vertex="1">
          <mxGeometry x="40" y="640" width="120" height="60" as="geometry" />
        </mxCell>
        <mxCell id="oBcGlbRmu3WK4HHVnncj-20" value="&lt;h1 style=&quot;margin-top: 0px;&quot;&gt;Game Engine&lt;/h1&gt;&lt;p&gt;The GameEngine manages all the created entities in the game, updates the systems with the entity data.&lt;/p&gt;&lt;p&gt;The RenderSystem takes the entities and draws each of them using the SpriteRenderer&amp;nbsp;&lt;/p&gt;" style="text;html=1;whiteSpace=wrap;overflow=hidden;rounded=0;" parent="1" vertex="1">
          <mxGeometry x="200" y="640" width="280" height="160" as="geometry" />
        </mxCell>
        <mxCell id="oBcGlbRmu3WK4HHVnncj-24" value="" style="strokeWidth=2;html=1;shape=mxgraph.flowchart.terminator;whiteSpace=wrap;" parent="1" vertex="1">
          <mxGeometry x="720" y="640" width="100" height="60" as="geometry" />
        </mxCell>
        <mxCell id="oBcGlbRmu3WK4HHVnncj-31" value="" style="edgeStyle=orthogonalEdgeStyle;rounded=0;orthogonalLoop=1;jettySize=auto;html=1;" parent="1" source="oBcGlbRmu3WK4HHVnncj-37" target="oBcGlbRmu3WK4HHVnncj-28" edge="1">
          <mxGeometry relative="1" as="geometry">
            <mxPoint x="609.9999999999998" y="980" as="sourcePoint" />
          </mxGeometry>
        </mxCell>
        <mxCell id="oBcGlbRmu3WK4HHVnncj-32" value="yes" style="edgeStyle=orthogonalEdgeStyle;rounded=0;orthogonalLoop=1;jettySize=auto;html=1;" parent="1" source="oBcGlbRmu3WK4HHVnncj-28" target="oBcGlbRmu3WK4HHVnncj-29" edge="1">
          <mxGeometry relative="1" as="geometry" />
        </mxCell>
        <mxCell id="oBcGlbRmu3WK4HHVnncj-36" value="no" style="edgeStyle=orthogonalEdgeStyle;rounded=0;orthogonalLoop=1;jettySize=auto;html=1;" parent="1" source="oBcGlbRmu3WK4HHVnncj-28" target="oBcGlbRmu3WK4HHVnncj-35" edge="1">
          <mxGeometry relative="1" as="geometry" />
        </mxCell>
        <mxCell id="oBcGlbRmu3WK4HHVnncj-28" value="if game running" style="strokeWidth=2;html=1;shape=mxgraph.flowchart.decision;whiteSpace=wrap;" parent="1" vertex="1">
          <mxGeometry x="560" y="1040" width="100" height="100" as="geometry" />
        </mxCell>
        <mxCell id="oBcGlbRmu3WK4HHVnncj-33" value="" style="edgeStyle=orthogonalEdgeStyle;rounded=0;orthogonalLoop=1;jettySize=auto;html=1;" parent="1" source="oBcGlbRmu3WK4HHVnncj-29" target="oBcGlbRmu3WK4HHVnncj-30" edge="1">
          <mxGeometry relative="1" as="geometry" />
        </mxCell>
        <mxCell id="oBcGlbRmu3WK4HHVnncj-29" value="Send all entities to each system" style="rounded=1;whiteSpace=wrap;html=1;absoluteArcSize=1;arcSize=14;strokeWidth=2;" parent="1" vertex="1">
          <mxGeometry x="560" y="1200" width="100" height="100" as="geometry" />
        </mxCell>
        <mxCell id="oBcGlbRmu3WK4HHVnncj-30" value="RenderSystem&lt;div&gt;render( entities )&lt;/div&gt;" style="rounded=1;whiteSpace=wrap;html=1;absoluteArcSize=1;arcSize=14;strokeWidth=2;" parent="1" vertex="1">
          <mxGeometry x="560" y="1360" width="100" height="100" as="geometry" />
        </mxCell>
        <mxCell id="oBcGlbRmu3WK4HHVnncj-34" style="edgeStyle=orthogonalEdgeStyle;rounded=0;orthogonalLoop=1;jettySize=auto;html=1;entryX=0;entryY=0.5;entryDx=0;entryDy=0;entryPerimeter=0;" parent="1" source="oBcGlbRmu3WK4HHVnncj-30" target="oBcGlbRmu3WK4HHVnncj-28" edge="1">
          <mxGeometry relative="1" as="geometry">
            <Array as="points">
              <mxPoint x="490" y="1410" />
              <mxPoint x="490" y="1090" />
            </Array>
          </mxGeometry>
        </mxCell>
        <mxCell id="oBcGlbRmu3WK4HHVnncj-35" value="" style="strokeWidth=2;html=1;shape=mxgraph.flowchart.terminator;whiteSpace=wrap;" parent="1" vertex="1">
          <mxGeometry x="740" y="1060" width="100" height="60" as="geometry" />
        </mxCell>
        <mxCell id="oBcGlbRmu3WK4HHVnncj-37" value="" style="strokeWidth=2;html=1;shape=mxgraph.flowchart.start_1;whiteSpace=wrap;" parent="1" vertex="1">
          <mxGeometry x="560" y="920" width="100" height="60" as="geometry" />
        </mxCell>
        <mxCell id="oBcGlbRmu3WK4HHVnncj-38" value="" style="strokeWidth=2;html=1;shape=mxgraph.flowchart.start_1;whiteSpace=wrap;" parent="1" vertex="1">
          <mxGeometry x="560" y="40" width="100" height="60" as="geometry" />
        </mxCell>
        <mxCell id="oBcGlbRmu3WK4HHVnncj-39" value="" style="strokeWidth=2;html=1;shape=mxgraph.flowchart.start_1;whiteSpace=wrap;" parent="1" vertex="1">
          <mxGeometry x="720" y="40" width="100" height="60" as="geometry" />
        </mxCell>
        <mxCell id="AyadDbX-nnqbEkrLrILc-1" value="entities" style="rounded=0;whiteSpace=wrap;html=1;" vertex="1" parent="1">
          <mxGeometry x="-160" y="1060" width="120" height="60" as="geometry" />
        </mxCell>
        <mxCell id="AyadDbX-nnqbEkrLrILc-3" style="edgeStyle=orthogonalEdgeStyle;rounded=0;orthogonalLoop=1;jettySize=auto;html=1;" edge="1" parent="1" source="AyadDbX-nnqbEkrLrILc-2" target="AyadDbX-nnqbEkrLrILc-1">
          <mxGeometry relative="1" as="geometry" />
        </mxCell>
        <mxCell id="AyadDbX-nnqbEkrLrILc-2" value="RenderSystem" style="rounded=0;whiteSpace=wrap;html=1;" vertex="1" parent="1">
          <mxGeometry x="-110" y="950" width="120" height="60" as="geometry" />
        </mxCell>
        <mxCell id="AyadDbX-nnqbEkrLrILc-4" value="give me your position and sprite components" style="rounded=0;whiteSpace=wrap;html=1;" vertex="1" parent="1">
          <mxGeometry x="-60" y="1215" width="120" height="60" as="geometry" />
        </mxCell>
        <mxCell id="AyadDbX-nnqbEkrLrILc-5" value="for each entity" style="rounded=0;whiteSpace=wrap;html=1;" vertex="1" parent="1">
          <mxGeometry x="-110" y="1140" width="120" height="60" as="geometry" />
        </mxCell>
        <mxCell id="AyadDbX-nnqbEkrLrILc-6" value="entity-&amp;gt;getComponent&amp;lt;Transform&amp;gt;()" style="rounded=0;whiteSpace=wrap;html=1;" vertex="1" parent="1">
          <mxGeometry x="-60" y="1290" width="240" height="60" as="geometry" />
        </mxCell>
        <mxCell id="AyadDbX-nnqbEkrLrILc-7" value="entity-&amp;gt;getComponent&amp;lt;Sprite&amp;gt;()" style="rounded=0;whiteSpace=wrap;html=1;" vertex="1" parent="1">
          <mxGeometry x="-60" y="1360" width="240" height="60" as="geometry" />
        </mxCell>
        <mxCell id="AyadDbX-nnqbEkrLrILc-8" value="render(transform, sprite)" style="rounded=0;whiteSpace=wrap;html=1;" vertex="1" parent="1">
          <mxGeometry x="-60" y="1430" width="240" height="60" as="geometry" />
        </mxCell>
        <mxCell id="AyadDbX-nnqbEkrLrILc-9" value="Entity" style="rounded=0;whiteSpace=wrap;html=1;" vertex="1" parent="1">
          <mxGeometry x="-760" y="990" width="120" height="60" as="geometry" />
        </mxCell>
        <mxCell id="AyadDbX-nnqbEkrLrILc-10" value="T* getComponent&amp;lt;T&amp;gt;()" style="rounded=0;whiteSpace=wrap;html=1;" vertex="1" parent="1">
          <mxGeometry x="-710" y="1070" width="300" height="60" as="geometry" />
        </mxCell>
        <mxCell id="AyadDbX-nnqbEkrLrILc-11" value="need to get the component of type T for the entity" style="rounded=0;whiteSpace=wrap;html=1;" vertex="1" parent="1">
          <mxGeometry x="-580" y="1155" width="300" height="60" as="geometry" />
        </mxCell>
        <mxCell id="AyadDbX-nnqbEkrLrILc-12" value="Component of Type T" style="rounded=0;whiteSpace=wrap;html=1;" vertex="1" parent="1">
          <mxGeometry x="-1080" y="990" width="240" height="60" as="geometry" />
        </mxCell>
        <mxCell id="AyadDbX-nnqbEkrLrILc-13" value="Component for Entity 0" style="rounded=0;whiteSpace=wrap;html=1;" vertex="1" parent="1">
          <mxGeometry x="-1080" y="1070" width="160" height="60" as="geometry" />
        </mxCell>
        <mxCell id="AyadDbX-nnqbEkrLrILc-14" value="Component for Entity 1" style="rounded=0;whiteSpace=wrap;html=1;" vertex="1" parent="1">
          <mxGeometry x="-1080" y="1130" width="160" height="60" as="geometry" />
        </mxCell>
        <mxCell id="AyadDbX-nnqbEkrLrILc-15" value="Component for Entity ..." style="rounded=0;whiteSpace=wrap;html=1;" vertex="1" parent="1">
          <mxGeometry x="-1080" y="1190" width="160" height="60" as="geometry" />
        </mxCell>
        <mxCell id="AyadDbX-nnqbEkrLrILc-16" value="bool addEntity( entityId )" style="rounded=0;whiteSpace=wrap;html=1;" vertex="1" parent="1">
          <mxGeometry x="-720" y="1360" width="170" height="60" as="geometry" />
        </mxCell>
        <mxCell id="AyadDbX-nnqbEkrLrILc-17" value="Component Registry" style="rounded=0;whiteSpace=wrap;html=1;" vertex="1" parent="1">
          <mxGeometry x="-760" y="1290" width="120" height="60" as="geometry" />
        </mxCell>
        <mxCell id="AyadDbX-nnqbEkrLrILc-19" value="Entity* getEntity()" style="rounded=0;whiteSpace=wrap;html=1;" vertex="1" parent="1">
          <mxGeometry x="-720" y="1430" width="170" height="60" as="geometry" />
        </mxCell>
      </root>
    </mxGraphModel>
  </diagram>
</mxfile>
